# xmcd
#
# Track frame offsets:
# 150
# 17322
# 29107
# 54187
# 66277
# 91002
# 114699
# 128359
# 144954
# 165194
# 188391
# 201592
# 211859
# 238371
# 256907
# 267992
# 278273
# 290872
# 301709
# 310654
#
# Disc length: 4306 seconds
#
#
# Revision: 0
# Processed by: cddbd v1.5PL3 Copyright (c) Steve Scherf et al.
# Submitted via: FreeRIP 2.53 
#
DISCID=0b10d014
DTITLE=Yardbirds - Five Live
DYEAR=2003
DGENRE=Blues
TTITLE0=Too Much Monkey Business
TTITLE1=Got Love If You Want It
TTITLE2=Smokestack Lightning
TTITLE3=Good Morning Little Schoolgirl
TTITLE4=Respectable
TTITLE5=Five Long Years
TTITLE6=Pretty Girl
TTITLE7=Louise
TTITLE8=I'm A Man
TTITLE9=Here 'Tis
TTITLE10=You Can't Judge A Book By Looking At The Cover
TTITLE11=Let It Rock
TTITLE12=I Wish You Would
TTITLE13=Who Do You Love
TTITLE14=Honey In Your Hips
TTITLE15=A Certain Girl
TTITLE16=Got To Hurry
TTITLE17=Boom Boom
TTITLE18=I Ain't Got You
TTITLE19=Good Morning Little Schoolgirl (Studio Version)
EXTD=
EXTT0=
EXTT1=
EXTT2=
EXTT3=
EXTT4=
EXTT5=
EXTT6=
EXTT7=
EXTT8=
EXTT9=
EXTT10=
EXTT11=
EXTT12=
EXTT13=
EXTT14=
EXTT15=
EXTT16=
EXTT17=
EXTT18=
EXTT19=
PLAYORDER=
